<svg width="85" height="85" viewBox="0 0 85 85" fill="none" xmlns="http://www.w3.org/2000/svg">
<rect width="85" height="85" rx="15" fill="#35495E"/>
<path d="M39.9 30.7187L51.275 11.2187C56.2041 12.5187 60.5786 14.9021 64.3985 18.3687C68.2183 21.8354 70.9938 25.9521 72.725 30.7187H39.9ZM30.8813 38.8437L19.75 19.3437C22.675 16.4729 26.0745 14.1979 29.9485 12.5187C33.8225 10.8396 38.0063 10 42.5 10C43.2042 10 44.0167 10.0412 44.9375 10.1235C45.8583 10.2058 46.6979 10.3001 47.4562 10.4062L30.8813 38.8437ZM11.0563 50.625C10.7313 49.325 10.4735 47.9979 10.2828 46.6437C10.0921 45.2895 9.99787 43.9083 10 42.5C10 38.6541 10.623 35.025 11.8688 31.6125C13.1146 28.2 14.875 25.0854 17.15 22.2687L33.5625 50.625H11.0563ZM33.8063 73.7812C28.8771 72.4812 24.4896 70.0978 20.6438 66.6312C16.7979 63.1645 14.0084 59.0479 12.275 54.2812H45.0187L33.8063 73.7812ZM42.5 74.9999C41.6875 74.9999 40.8609 74.9458 40.0203 74.8374C39.1796 74.7291 38.3812 74.6208 37.625 74.5124L54.1187 46.1562L65.25 65.6562C62.325 68.527 58.9255 70.802 55.0515 72.4812C51.1775 74.1603 46.9937 74.9999 42.5 74.9999ZM67.85 62.7312L51.4375 34.375H73.9437C74.2687 35.675 74.5265 37.0021 74.7172 38.3562C74.9079 39.7104 75.0021 41.0916 75 42.5C75 46.2916 74.3359 49.9208 73.0077 53.3875C71.6795 56.8541 69.9603 59.9687 67.85 62.7312Z" fill="white"/>
</svg>
