<svg width="151" height="150" viewBox="0 0 151 150" fill="none" xmlns="http://www.w3.org/2000/svg">
<path d="M75.5002 0C33.7947 0 0.0834961 33.525 0.0834961 75C0.0834961 116.475 33.7947 150 75.5002 150C117.206 150 150.917 116.475 150.917 75C150.917 33.525 117.206 0 75.5002 0ZM107.929 107.25C107.232 107.945 106.403 108.497 105.491 108.873C104.578 109.25 103.6 109.443 102.612 109.443C101.625 109.443 100.647 109.25 99.7344 108.873C98.822 108.497 97.9933 107.945 97.2956 107.25L75.5002 85.575L53.7047 107.25C52.2946 108.652 50.3821 109.44 48.3879 109.44C46.3937 109.44 44.4811 108.652 43.071 107.25C41.6609 105.848 40.8687 103.946 40.8687 101.963C40.8687 100.981 41.0632 100.008 41.441 99.1009C41.8189 98.1937 42.3728 97.3694 43.071 96.675L64.8664 75L43.071 53.325C41.6609 51.9227 40.8687 50.0207 40.8687 48.0375C40.8687 46.0543 41.6609 44.1523 43.071 42.75C44.4811 41.3477 46.3937 40.5598 48.3879 40.5598C50.3821 40.5598 52.2946 41.3477 53.7047 42.75L75.5002 64.425L97.2956 42.75C97.9938 42.0556 98.8227 41.5048 99.735 41.129C100.647 40.7533 101.625 40.5598 102.612 40.5598C103.6 40.5598 104.578 40.7533 105.49 41.129C106.402 41.5048 107.231 42.0556 107.929 42.75C108.628 43.4444 109.181 44.2687 109.559 45.1759C109.937 46.0832 110.132 47.0555 110.132 48.0375C110.132 49.0195 109.937 49.9918 109.559 50.8991C109.181 51.8063 108.628 52.6306 107.929 53.325L86.1339 75L107.929 96.675C110.795 99.525 110.795 104.325 107.929 107.25Z" fill="url(#paint0_linear_496_3428)"/>
<defs>
<linearGradient id="paint0_linear_496_3428" x1="15.9606" y1="96.3016" x2="125.059" y2="109.939" gradientUnits="userSpaceOnUse">
<stop stop-color="#DA4749"/>
<stop offset="1" stop-color="#FE8A09" stop-opacity="0.67"/>
</linearGradient>
</defs>
</svg>
