<svg width="59" height="51" viewBox="0 0 59 51" fill="none" xmlns="http://www.w3.org/2000/svg">
<path d="M15.9588 23.5522L42.1285 23.521L29.0188 42.4363L15.9588 23.5522Z" fill="url(#paint0_linear_396_3069)"/>
<path d="M29.0261 24.1094H16.9751C16.3072 24.1094 15.7647 23.5643 15.7624 22.8871C15.7624 22.671 15.8192 22.4572 15.9258 22.2699L21.9513 11.6872L27.9721 1.12379C28.2989 0.533065 29.0379 0.326551 29.6206 0.657935C29.8124 0.768396 29.9711 0.929285 30.08 1.12379L36.1056 11.7065L42.1311 22.2891C42.465 22.8751 42.2685 23.6243 41.6929 23.9653C41.5082 24.0733 41.2997 24.131 41.0865 24.131L29.0284 24.1141L29.0261 24.1094Z" fill="#FEB800"/>
<path d="M26.3641 49.8922L13.8891 27.0459L29.0192 42.4361L26.3641 49.8922Z" fill="url(#paint1_linear_396_3069)"/>
<path d="M13.2637 50.4785H1.21268C0.544757 50.4785 0.00236851 49.9334 0 49.2562C0 49.0401 0.0568438 48.8264 0.163427 48.6391L6.18891 38.0564L12.2097 27.493C12.5365 26.9022 13.2755 26.6957 13.8582 27.0271C14.05 27.1375 14.2087 27.2984 14.3177 27.493L20.3432 38.0756L26.3687 48.6583C26.7027 49.2442 26.5061 49.9934 25.9305 50.3344C25.7458 50.4425 25.5373 50.5001 25.3241 50.5001L13.2661 50.4833L13.2637 50.4785Z" fill="#6EB644"/>
<path d="M31.6744 49.8922L44.147 27.0459L29.0193 42.4361L31.6744 49.8922Z" fill="url(#paint2_linear_396_3069)"/>
<path d="M44.774 50.4785H56.825C57.4928 50.4785 58.0355 49.9334 58.0376 49.2562C58.0376 49.0401 57.981 48.8264 57.8742 48.6391L51.8488 38.0564L45.8281 27.493C45.5012 26.9022 44.7622 26.6957 44.1796 27.0271C43.9877 27.1375 43.829 27.2984 43.7201 27.493L37.6946 38.0756L31.6691 48.6583C31.3351 49.2442 31.5317 49.9934 32.1072 50.3344C32.292 50.4425 32.5004 50.5001 32.7136 50.5001L44.7717 50.4833L44.774 50.4785Z" fill="#FC3557"/>
<defs>
<linearGradient id="paint0_linear_396_3069" x1="29.0448" y1="21.343" x2="29.0448" y2="42.3522" gradientUnits="userSpaceOnUse">
<stop stop-color="#FEB800"/>
<stop offset="0.17" stop-color="#F99A0C"/>
<stop offset="0.37" stop-color="#F58018"/>
<stop offset="0.57" stop-color="#F26D20"/>
<stop offset="0.78" stop-color="#F06125"/>
<stop offset="1" stop-color="#F05E27"/>
</linearGradient>
<linearGradient id="paint1_linear_396_3069" x1="19.4551" y1="38.8413" x2="24.5629" y2="36.0766" gradientUnits="userSpaceOnUse">
<stop stop-color="#50E3C2"/>
<stop offset="0.18" stop-color="#41D3B0"/>
<stop offset="0.44" stop-color="#32C29E"/>
<stop offset="0.71" stop-color="#29B892"/>
<stop offset="1" stop-color="#26B58F"/>
</linearGradient>
<linearGradient id="paint2_linear_396_3069" x1="38.4673" y1="38.8077" x2="33.6622" y2="35.9461" gradientUnits="userSpaceOnUse">
<stop stop-color="#FC3557"/>
<stop offset="0.18" stop-color="#EA294D"/>
<stop offset="0.44" stop-color="#D81D42"/>
<stop offset="0.71" stop-color="#CC153C"/>
<stop offset="1" stop-color="#C9133A"/>
</linearGradient>
</defs>
</svg>
