<svg width="420" height="94" viewBox="0 0 420 94" fill="none" xmlns="http://www.w3.org/2000/svg">
<path d="M121.598 47.952L134.132 15.5107H141.14L153.86 47.952H146.34L144.021 41.88V41.9748H131.256V41.88L129.027 47.952H121.598ZM133.2 36.0879H141.972L137.654 23.1132L133.2 36.0879Z" fill="black"/>
<path d="M157.012 24.1742H163.93V27.4201C165.924 24.6392 168.434 23.6641 171.309 23.6641C177.992 23.6641 179.806 28.9957 179.806 35.018V47.9476H172.887V35.158C172.887 31.8669 171.68 29.3659 168.479 29.3659C165.277 29.3659 163.93 31.9166 163.93 35.2031V47.9476H157.012V24.1742Z" fill="black"/>
<path d="M210.07 46.2817C210.07 55.6448 203.943 59.3061 197.165 59.3061C191.874 59.3061 188.297 57.9608 185.883 56.015L188.623 50.6382C190.016 51.8436 193.127 53.3244 195.772 53.3244C199.344 53.3244 203.151 52.2589 203.151 47.0673V44.4714C201.433 46.9273 199.159 48.4577 195.677 48.4577C188.438 48.4577 184.074 42.8959 184.074 35.9435C184.074 28.9912 188.112 23.6641 195.541 23.6641C198.743 23.6641 201.528 25.2396 203.151 27.4201V24.1742H210.07V46.2817ZM197.119 42.8507C200.506 42.8507 203.341 40.6747 203.341 36.3634C203.341 32.052 200.696 29.2711 196.934 29.2711C193.172 29.2711 190.992 32.3319 190.992 35.9932C190.992 39.6544 193.312 42.8507 197.119 42.8507Z" fill="black"/>
<path d="M239.311 43.7811C235.924 47.4875 231.42 48.4626 228.219 48.4626C219.401 48.4626 214.572 42.9459 214.572 36.1832C214.572 29.4204 220.048 23.6689 227.708 23.6689C234.3 23.6689 240.613 28.2105 240.613 37.6639H221.441C221.581 40.6299 224.321 42.8059 228.73 42.8059C231.19 42.8059 233.649 41.5554 235.322 39.9799L239.315 43.7811H239.311ZM221.581 33.4925H233.509C233.043 30.4317 229.937 29.276 227.613 29.276C225.289 29.276 222.413 30.2962 221.581 33.4925Z" fill="black"/>
<path d="M244.742 47.952V14.4453H251.66V47.952H244.742Z" fill="black"/>
<path d="M139.522 54.241C144.582 54.241 147.878 55.8617 151.174 58.3176L148.204 63.7846C145.834 61.9788 143.239 60.6335 139.572 60.6335C132.979 60.6335 128.991 65.1751 128.991 70.9672C128.991 76.7593 132.983 81.3009 139.572 81.3009C143.239 81.3009 145.839 79.9556 148.204 78.1498L151.174 83.6168C147.878 86.0727 144.582 87.6934 139.522 87.6934C128.521 87.6934 121.697 80.0007 121.697 70.9627C121.697 61.9246 128.521 54.2319 139.522 54.2319V54.241Z" fill="black"/>
<path d="M166.209 62.9087C173.173 62.9087 179.3 67.9153 179.3 75.283C179.3 82.6506 173.173 87.7024 166.209 87.7024C159.246 87.7024 153.119 82.7454 153.119 75.283C153.119 67.8205 159.291 62.9087 166.209 62.9087ZM166.209 81.7703C169.646 81.7703 172.567 78.9894 172.567 75.283C172.567 71.5765 169.641 68.8408 166.209 68.8408C162.778 68.8408 159.847 71.5765 159.847 75.283C159.847 78.9894 162.818 81.7703 166.209 81.7703Z" fill="black"/>
<path d="M205.481 74.4478V87.1922H198.612V74.4026C198.612 71.1567 197.685 68.6105 194.62 68.6105C191.554 68.6105 190.672 71.2515 190.672 74.4478V87.1922H183.754V63.4188H190.672V66.6648C192.205 64.2992 194.434 62.9087 197.03 62.9087C200.652 62.9087 203.111 64.4843 204.319 66.895C206.127 63.4188 209.564 62.9087 211.838 62.9087C218.521 62.9087 220.335 68.2403 220.335 74.2627V87.1922H213.416V74.4026C213.416 71.1567 212.489 68.6105 209.424 68.6105C206.358 68.6105 205.476 71.2515 205.476 74.4478H205.481Z" fill="black"/>
<path d="M247.717 74.4478V87.1922H240.849V74.4026C240.849 71.1567 239.922 68.6105 236.856 68.6105C233.79 68.6105 232.908 71.2515 232.908 74.4478V87.1922H225.99V63.4188H232.908V66.6648C234.441 64.2992 236.671 62.9087 239.266 62.9087C242.888 62.9087 245.348 64.4843 246.555 66.895C248.364 63.4188 251.8 62.9087 254.075 62.9087C260.758 62.9087 262.571 68.2403 262.571 74.2627V87.1922H255.653V74.4026C255.653 71.1567 254.726 68.6105 251.66 68.6105C248.594 68.6105 247.713 71.2515 247.713 74.4478H247.717Z" fill="black"/>
<path d="M290.75 87.1924H283.832V83.9465C281.838 86.7275 279.329 87.7026 276.453 87.7026C269.77 87.7026 267.961 82.371 267.961 76.3486V63.4191H274.879V76.2087C274.879 79.4997 276.086 82.0008 279.288 82.0008C282.489 82.0008 283.837 79.4501 283.837 76.159V63.4146H290.755V87.1879L290.75 87.1924Z" fill="black"/>
<path d="M296.736 63.4188H303.655V66.6648C305.649 63.8838 308.158 62.9087 311.034 62.9087C317.717 62.9087 319.53 68.2403 319.53 74.2627V87.1922H312.612V74.4026C312.612 71.1115 311.405 68.6105 308.203 68.6105C305.002 68.6105 303.655 71.1612 303.655 74.4478V87.1922H296.736V63.4188Z" fill="black"/>
<path d="M328.811 53.1753C331.271 53.1753 333.219 54.796 333.219 57.1165C333.219 59.4369 331.271 60.9628 328.811 60.9628C326.351 60.9628 324.447 59.3872 324.447 57.1165C324.447 54.8457 326.306 53.1753 328.811 53.1753ZM325.284 87.1921V63.4187H332.202V87.1921H325.284Z" fill="black"/>
<path d="M346.776 63.4189H353.368V68.8408H346.776V79.9646C346.776 80.9849 347.192 82.0503 348.539 82.0503C349.886 82.0503 350.348 80.9397 350.348 79.8246C350.348 79.1294 350.162 78.1588 350.022 77.7841H355.498C355.914 78.6644 356.054 79.775 356.054 80.6102C356.054 84.1315 353.734 87.7024 348.118 87.7024C343.94 87.7024 339.857 86.2217 339.857 79.3145V68.8408H336.285V63.4189H340.368L341.435 57.5771H346.776V63.4189Z" fill="black"/>
<path d="M363.111 53.1753C365.571 53.1753 367.52 54.796 367.52 57.1165C367.52 59.4369 365.571 60.9628 363.111 60.9628C360.652 60.9628 358.748 59.3872 358.748 57.1165C358.748 54.8457 360.606 53.1753 363.111 53.1753ZM359.585 87.1921V63.4187H366.503V87.1921H359.585Z" fill="black"/>
<path d="M395.791 83.0208C392.404 86.7272 387.901 87.7024 384.699 87.7024C375.882 87.7024 371.053 82.1856 371.053 75.4229C371.053 68.6602 376.529 62.9087 384.188 62.9087C390.781 62.9087 397.093 67.4503 397.093 76.9037H377.921C378.061 79.8697 380.802 82.0457 385.21 82.0457C387.67 82.0457 390.13 80.7952 391.803 79.2196L395.796 83.0208H395.791ZM378.061 72.7323H389.99C389.524 69.6714 386.417 68.5157 384.093 68.5157C381.769 68.5157 378.893 69.536 378.061 72.7323Z" fill="black"/>
<path d="M404.286 78.8043C404.982 81.5401 407.397 82.3707 409.301 82.3707C410.833 82.3707 412.412 81.7703 412.412 80.5649C412.412 79.7749 411.946 79.2196 410.648 78.7591L406.47 76.9985C400.809 75.0076 400.529 71.2515 400.529 70.1861C400.529 65.4142 404.752 62.9087 409.857 62.9087C412.597 62.9087 416.214 63.6491 418.444 67.9153L413.103 70.3712C412.502 68.4706 410.784 68.1004 409.717 68.1004C408.419 68.1004 407.071 68.8407 407.071 70.0461C407.071 71.0664 408.093 71.6217 409.301 72.0867L412.873 73.4771C418.489 75.0979 419 78.7591 419 80.3347C419 85.2013 414.496 87.7024 409.251 87.7024C405.724 87.7024 400.895 86.5918 399.271 81.6303L404.286 78.8043Z" fill="black"/>
<path d="M30.4668 43.3385L80.4272 43.2798L55.3995 78.8405L30.4668 43.3385Z" fill="url(#paint0_linear_3003_68320)"/>
<path d="M55.4134 44.3856H32.4069C31.1318 44.3856 30.0963 43.3608 30.0918 42.0877C30.0918 41.6814 30.2003 41.2796 30.4038 40.9275L41.907 21.032L53.4012 1.17273C54.0252 0.0621625 55.436 -0.326084 56.5483 0.296917C56.9146 0.504585 57.2175 0.807056 57.4255 1.17273L68.9288 21.0682L80.432 40.9636C81.0696 42.0651 80.6943 43.4736 79.5955 44.1147C79.2428 44.3178 78.8449 44.4262 78.4379 44.4262L55.4179 44.3946L55.4134 44.3856Z" fill="#FEB800"/>
<path d="M50.3315 92.8577L26.5156 49.9067L55.4003 78.8402L50.3315 92.8577Z" fill="url(#paint1_linear_3003_68320)"/>
<path d="M25.3216 93.9593H2.31511C1.03999 93.9593 0.00452171 92.9345 0 91.6614C0 91.2551 0.10852 90.8533 0.311997 90.5012L11.8152 70.6058L23.3094 50.7465C23.9334 49.6359 25.3442 49.2476 26.4565 49.8706C26.8228 50.0783 27.1257 50.3808 27.3337 50.7465L38.837 70.6419L50.3402 90.5373C50.9778 91.6388 50.6025 93.0474 49.5037 93.6884C49.151 93.8916 48.7531 93.9999 48.3461 93.9999L25.3261 93.9683L25.3216 93.9593Z" fill="#50E3C2"/>
<path d="M60.4692 92.8577L84.2806 49.9067L55.4004 78.8402L60.4692 92.8577Z" fill="url(#paint2_linear_3003_68320)"/>
<path d="M85.4777 93.9593H108.484C109.759 93.9593 110.795 92.9345 110.799 91.6614C110.799 91.2551 110.691 90.8533 110.487 90.5012L98.9841 70.6058L87.4899 50.7465C86.8659 49.6359 85.4551 49.2476 84.3428 49.8706C83.9765 50.0783 83.6736 50.3808 83.4656 50.7465L71.9624 70.6419L60.4591 90.5373C59.8216 91.6388 60.1969 93.0474 61.2956 93.6884C61.6483 93.8916 62.0462 93.9999 62.4532 93.9999L85.4732 93.9683L85.4777 93.9593Z" fill="#FC3557"/>
<defs>
<linearGradient id="paint0_linear_3003_68320" x1="55.4492" y1="39.1851" x2="55.4492" y2="78.6825" gradientUnits="userSpaceOnUse">
<stop stop-color="#FEB800"/>
<stop offset="0.17" stop-color="#F99A0C"/>
<stop offset="0.37" stop-color="#F58018"/>
<stop offset="0.57" stop-color="#F26D20"/>
<stop offset="0.78" stop-color="#F06125"/>
<stop offset="1" stop-color="#F05E27"/>
</linearGradient>
<linearGradient id="paint1_linear_3003_68320" x1="37.1416" y1="72.082" x2="46.8245" y2="66.7599" gradientUnits="userSpaceOnUse">
<stop stop-color="#50E3C2"/>
<stop offset="0.18" stop-color="#41D3B0"/>
<stop offset="0.44" stop-color="#32C29E"/>
<stop offset="0.71" stop-color="#29B892"/>
<stop offset="1" stop-color="#26B58F"/>
</linearGradient>
<linearGradient id="paint2_linear_3003_68320" x1="73.4375" y1="72.0188" x2="64.3385" y2="66.5163" gradientUnits="userSpaceOnUse">
<stop stop-color="#FC3557"/>
<stop offset="0.18" stop-color="#EA294D"/>
<stop offset="0.44" stop-color="#D81D42"/>
<stop offset="0.71" stop-color="#CC153C"/>
<stop offset="1" stop-color="#C9133A"/>
</linearGradient>
</defs>
</svg>
