<svg width="283" height="283" viewBox="0 0 283 283" fill="none" xmlns="http://www.w3.org/2000/svg">
<path d="M36.5881 28.8457H28.8457V36.615H36.5881V28.8457Z" fill="#35495E"/>
<path d="M44.3305 28.8457H36.5881V36.615H44.3305V28.8457Z" fill="#35495E"/>
<path d="M52.0728 28.8457H44.3305V36.615H52.0728V28.8457Z" fill="#35495E"/>
<path d="M59.8152 28.8457H52.0728V36.615H59.8152V28.8457Z" fill="#35495E"/>
<path d="M67.5576 28.8457H59.8152V36.615H67.5576V28.8457Z" fill="#35495E"/>
<path d="M75.3 28.8457H67.5576V36.615H75.3V28.8457Z" fill="#35495E"/>
<path d="M83.0423 28.8457H75.3V36.615H83.0423V28.8457Z" fill="#35495E"/>
<path d="M98.5271 28.8457H90.7847V36.615H98.5271V28.8457Z" fill="#35495E"/>
<path d="M106.269 28.8457H98.5271V36.615H106.269V28.8457Z" fill="#35495E"/>
<path d="M114.012 28.8457H106.269V36.615H114.012V28.8457Z" fill="#35495E"/>
<path d="M129.497 28.8457H121.754V36.615H129.497V28.8457Z" fill="#35495E"/>
<path d="M137.239 28.8457H129.497V36.615H137.239V28.8457Z" fill="#35495E"/>
<path d="M144.981 28.8457H137.239V36.615H144.981V28.8457Z" fill="#35495E"/>
<path d="M168.208 28.8457H160.466V36.615H168.208V28.8457Z" fill="#35495E"/>
<path d="M175.951 28.8457H168.208V36.615H175.951V28.8457Z" fill="#35495E"/>
<path d="M183.693 28.8457H175.951V36.615H183.693V28.8457Z" fill="#35495E"/>
<path d="M191.436 28.8457H183.693V36.615H191.436V28.8457Z" fill="#35495E"/>
<path d="M206.92 28.8457H199.178V36.615H206.92V28.8457Z" fill="#35495E"/>
<path d="M214.663 28.8457H206.92V36.615H214.663V28.8457Z" fill="#35495E"/>
<path d="M222.405 28.8457H214.663V36.615H222.405V28.8457Z" fill="#35495E"/>
<path d="M230.148 28.8457H222.405V36.615H230.148V28.8457Z" fill="#35495E"/>
<path d="M237.89 28.8457H230.148V36.615H237.89V28.8457Z" fill="#35495E"/>
<path d="M245.632 28.8457H237.89V36.615H245.632V28.8457Z" fill="#35495E"/>
<path d="M253.375 28.8457H245.632V36.615H253.375V28.8457Z" fill="#35495E"/>
<path d="M36.5881 36.615H28.8457V44.3842H36.5881V36.615Z" fill="#35495E"/>
<path d="M83.0423 36.615H75.3V44.3842H83.0423V36.615Z" fill="#35495E"/>
<path d="M114.012 36.615H106.269V44.3842H114.012V36.615Z" fill="#35495E"/>
<path d="M121.754 36.615H114.012V44.3842H121.754V36.615Z" fill="#35495E"/>
<path d="M144.981 36.615H137.239V44.3842H144.981V36.615Z" fill="#35495E"/>
<path d="M152.724 36.615H144.981V44.3842H152.724V36.615Z" fill="#35495E"/>
<path d="M160.466 36.615H152.724V44.3842H160.466V36.615Z" fill="#35495E"/>
<path d="M168.208 36.615H160.466V44.3842H168.208V36.615Z" fill="#35495E"/>
<path d="M175.951 36.615H168.208V44.3842H175.951V36.615Z" fill="#35495E"/>
<path d="M183.693 36.615H175.951V44.3842H183.693V36.615Z" fill="#35495E"/>
<path d="M191.436 36.615H183.693V44.3842H191.436V36.615Z" fill="#35495E"/>
<path d="M206.92 36.615H199.178V44.3842H206.92V36.615Z" fill="#35495E"/>
<path d="M253.375 36.615H245.632V44.3842H253.375V36.615Z" fill="#35495E"/>
<path d="M36.5881 44.3842H28.8457V52.1535H36.5881V44.3842Z" fill="#35495E"/>
<path d="M52.0728 44.3842H44.3305V52.1535H52.0728V44.3842Z" fill="#35495E"/>
<path d="M59.8152 44.3842H52.0728V52.1535H59.8152V44.3842Z" fill="#35495E"/>
<path d="M67.5576 44.3842H59.8152V52.1535H67.5576V44.3842Z" fill="#35495E"/>
<path d="M83.0423 44.3842H75.3V52.1535H83.0423V44.3842Z" fill="#35495E"/>
<path d="M106.269 44.3842H98.5271V52.1535H106.269V44.3842Z" fill="#35495E"/>
<path d="M121.754 44.3842H114.012V52.1535H121.754V44.3842Z" fill="#35495E"/>
<path d="M137.239 44.3842H129.497V52.1535H137.239V44.3842Z" fill="#35495E"/>
<path d="M168.208 44.3842H160.466V52.1535H168.208V44.3842Z" fill="#35495E"/>
<path d="M175.951 44.3842H168.208V52.1535H175.951V44.3842Z" fill="#35495E"/>
<path d="M183.693 44.3842H175.951V52.1535H183.693V44.3842Z" fill="#35495E"/>
<path d="M206.92 44.3842H199.178V52.1535H206.92V44.3842Z" fill="#35495E"/>
<path d="M222.405 44.3842H214.663V52.1535H222.405V44.3842Z" fill="#35495E"/>
<path d="M230.148 44.3842H222.405V52.1535H230.148V44.3842Z" fill="#35495E"/>
<path d="M237.89 44.3842H230.148V52.1535H237.89V44.3842Z" fill="#35495E"/>
<path d="M253.375 44.3842H245.632V52.1535H253.375V44.3842Z" fill="#35495E"/>
<path d="M36.5881 52.1535H28.8457V59.9227H36.5881V52.1535Z" fill="#35495E"/>
<path d="M52.0728 52.1535H44.3305V59.9227H52.0728V52.1535Z" fill="#35495E"/>
<path d="M59.8152 52.1535H52.0728V59.9227H59.8152V52.1535Z" fill="#35495E"/>
<path d="M67.5576 52.1535H59.8152V59.9227H67.5576V52.1535Z" fill="#35495E"/>
<path d="M83.0423 52.1535H75.3V59.9227H83.0423V52.1535Z" fill="#35495E"/>
<path d="M98.5271 52.1535H90.7847V59.9227H98.5271V52.1535Z" fill="#35495E"/>
<path d="M106.269 52.1535H98.5271V59.9227H106.269V52.1535Z" fill="#35495E"/>
<path d="M114.012 52.1535H106.269V59.9227H114.012V52.1535Z" fill="#35495E"/>
<path d="M129.497 52.1535H121.754V59.9227H129.497V52.1535Z" fill="#35495E"/>
<path d="M168.208 52.1535H160.466V59.9227H168.208V52.1535Z" fill="#35495E"/>
<path d="M175.951 52.1535H168.208V59.9227H175.951V52.1535Z" fill="#35495E"/>
<path d="M206.92 52.1535H199.178V59.9227H206.92V52.1535Z" fill="#35495E"/>
<path d="M222.405 52.1535H214.663V59.9227H222.405V52.1535Z" fill="#35495E"/>
<path d="M230.148 52.1535H222.405V59.9227H230.148V52.1535Z" fill="#35495E"/>
<path d="M237.89 52.1535H230.148V59.9227H237.89V52.1535Z" fill="#35495E"/>
<path d="M253.375 52.1535H245.632V59.9227H253.375V52.1535Z" fill="#35495E"/>
<path d="M36.5881 59.9227H28.8457V67.692H36.5881V59.9227Z" fill="#35495E"/>
<path d="M52.0728 59.9227H44.3305V67.692H52.0728V59.9227Z" fill="#35495E"/>
<path d="M59.8152 59.9227H52.0728V67.692H59.8152V59.9227Z" fill="#35495E"/>
<path d="M67.5576 59.9227H59.8152V67.692H67.5576V59.9227Z" fill="#35495E"/>
<path d="M83.0423 59.9227H75.3V67.692H83.0423V59.9227Z" fill="#35495E"/>
<path d="M98.5271 59.9227H90.7847V67.692H98.5271V59.9227Z" fill="#35495E"/>
<path d="M114.012 59.9227H106.269V67.692H114.012V59.9227Z" fill="#35495E"/>
<path d="M129.497 59.9227H121.754V67.692H129.497V59.9227Z" fill="#35495E"/>
<path d="M175.951 59.9227H168.208V67.692H175.951V59.9227Z" fill="#35495E"/>
<path d="M183.693 59.9227H175.951V67.692H183.693V59.9227Z" fill="#35495E"/>
<path d="M191.436 59.9227H183.693V67.692H191.436V59.9227Z" fill="#35495E"/>
<path d="M206.92 59.9227H199.178V67.692H206.92V59.9227Z" fill="#35495E"/>
<path d="M222.405 59.9227H214.663V67.692H222.405V59.9227Z" fill="#35495E"/>
<path d="M230.148 59.9227H222.405V67.692H230.148V59.9227Z" fill="#35495E"/>
<path d="M237.89 59.9227H230.148V67.692H237.89V59.9227Z" fill="#35495E"/>
<path d="M253.375 59.9227H245.632V67.692H253.375V59.9227Z" fill="#35495E"/>
<path d="M36.5881 67.692H28.8457V75.4613H36.5881V67.692Z" fill="#35495E"/>
<path d="M83.0423 67.692H75.3V75.4613H83.0423V67.692Z" fill="#35495E"/>
<path d="M98.5271 67.692H90.7847V75.4613H98.5271V67.692Z" fill="#35495E"/>
<path d="M114.012 67.692H106.269V75.4613H114.012V67.692Z" fill="#35495E"/>
<path d="M121.754 67.692H114.012V75.4613H121.754V67.692Z" fill="#35495E"/>
<path d="M144.981 67.692H137.239V75.4613H144.981V67.692Z" fill="#35495E"/>
<path d="M152.724 67.692H144.981V75.4613H152.724V67.692Z" fill="#35495E"/>
<path d="M160.466 67.692H152.724V75.4613H160.466V67.692Z" fill="#35495E"/>
<path d="M175.951 67.692H168.208V75.4613H175.951V67.692Z" fill="#35495E"/>
<path d="M206.92 67.692H199.178V75.4613H206.92V67.692Z" fill="#35495E"/>
<path d="M253.375 67.692H245.632V75.4613H253.375V67.692Z" fill="#35495E"/>
<path d="M36.5881 75.4613H28.8457V83.2305H36.5881V75.4613Z" fill="#35495E"/>
<path d="M44.3305 75.4613H36.5881V83.2305H44.3305V75.4613Z" fill="#35495E"/>
<path d="M52.0728 75.4613H44.3305V83.2305H52.0728V75.4613Z" fill="#35495E"/>
<path d="M59.8152 75.4613H52.0728V83.2305H59.8152V75.4613Z" fill="#35495E"/>
<path d="M67.5576 75.4613H59.8152V83.2305H67.5576V75.4613Z" fill="#35495E"/>
<path d="M75.3 75.4613H67.5576V83.2305H75.3V75.4613Z" fill="#35495E"/>
<path d="M83.0423 75.4613H75.3V83.2305H83.0423V75.4613Z" fill="#35495E"/>
<path d="M98.5271 75.4613H90.7847V83.2305H98.5271V75.4613Z" fill="#35495E"/>
<path d="M114.012 75.4613H106.269V83.2305H114.012V75.4613Z" fill="#35495E"/>
<path d="M129.497 75.4613H121.754V83.2305H129.497V75.4613Z" fill="#35495E"/>
<path d="M144.981 75.4613H137.239V83.2305H144.981V75.4613Z" fill="#35495E"/>
<path d="M160.466 75.4613H152.724V83.2305H160.466V75.4613Z" fill="#35495E"/>
<path d="M175.951 75.4613H168.208V83.2305H175.951V75.4613Z" fill="#35495E"/>
<path d="M191.436 75.4613H183.693V83.2305H191.436V75.4613Z" fill="#35495E"/>
<path d="M206.92 75.4613H199.178V83.2305H206.92V75.4613Z" fill="#35495E"/>
<path d="M214.663 75.4613H206.92V83.2305H214.663V75.4613Z" fill="#35495E"/>
<path d="M222.405 75.4613H214.663V83.2305H222.405V75.4613Z" fill="#35495E"/>
<path d="M230.148 75.4613H222.405V83.2305H230.148V75.4613Z" fill="#35495E"/>
<path d="M237.89 75.4613H230.148V83.2305H237.89V75.4613Z" fill="#35495E"/>
<path d="M245.632 75.4613H237.89V83.2305H245.632V75.4613Z" fill="#35495E"/>
<path d="M253.375 75.4613H245.632V83.2305H253.375V75.4613Z" fill="#35495E"/>
<path d="M98.5271 83.2305H90.7847V90.9998H98.5271V83.2305Z" fill="#35495E"/>
<path d="M106.269 83.2305H98.5271V90.9998H106.269V83.2305Z" fill="#35495E"/>
<path d="M114.012 83.2305H106.269V90.9998H114.012V83.2305Z" fill="#35495E"/>
<path d="M129.497 83.2305H121.754V90.9998H129.497V83.2305Z" fill="#35495E"/>
<path d="M137.239 83.2305H129.497V90.9998H137.239V83.2305Z" fill="#35495E"/>
<path d="M144.981 83.2305H137.239V90.9998H144.981V83.2305Z" fill="#35495E"/>
<path d="M152.724 83.2305H144.981V90.9998H152.724V83.2305Z" fill="#35495E"/>
<path d="M160.466 83.2305H152.724V90.9998H160.466V83.2305Z" fill="#35495E"/>
<path d="M36.5881 90.9998H28.8457V98.769H36.5881V90.9998Z" fill="#35495E"/>
<path d="M44.3305 90.9998H36.5881V98.769H44.3305V90.9998Z" fill="#35495E"/>
<path d="M52.0728 90.9998H44.3305V98.769H52.0728V90.9998Z" fill="#35495E"/>
<path d="M67.5576 90.9998H59.8152V98.769H67.5576V90.9998Z" fill="#35495E"/>
<path d="M83.0423 90.9998H75.3V98.769H83.0423V90.9998Z" fill="#35495E"/>
<path d="M98.5271 90.9998H90.7847V98.769H98.5271V90.9998Z" fill="#35495E"/>
<path d="M114.012 90.9998H106.269V98.769H114.012V90.9998Z" fill="#35495E"/>
<path d="M129.497 90.9998H121.754V98.769H129.497V90.9998Z" fill="#35495E"/>
<path d="M144.981 90.9998H137.239V98.769H144.981V90.9998Z" fill="#35495E"/>
<path d="M152.724 90.9998H144.981V98.769H152.724V90.9998Z" fill="#35495E"/>
<path d="M160.466 90.9998H152.724V98.769H160.466V90.9998Z" fill="#35495E"/>
<path d="M183.693 90.9998H175.951V98.769H183.693V90.9998Z" fill="#35495E"/>
<path d="M199.178 90.9998H191.436V98.769H199.178V90.9998Z" fill="#35495E"/>
<path d="M206.92 90.9998H199.178V98.769H206.92V90.9998Z" fill="#35495E"/>
<path d="M214.663 90.9998H206.92V98.769H214.663V90.9998Z" fill="#35495E"/>
<path d="M222.405 90.9998H214.663V98.769H222.405V90.9998Z" fill="#35495E"/>
<path d="M230.148 90.9998H222.405V98.769H230.148V90.9998Z" fill="#35495E"/>
<path d="M253.375 90.9998H245.632V98.769H253.375V90.9998Z" fill="#35495E"/>
<path d="M67.5576 98.769H59.8152V106.538H67.5576V98.769Z" fill="#35495E"/>
<path d="M98.5271 98.769H90.7847V106.538H98.5271V98.769Z" fill="#35495E"/>
<path d="M121.754 98.769H114.012V106.538H121.754V98.769Z" fill="#35495E"/>
<path d="M137.239 98.769H129.497V106.538H137.239V98.769Z" fill="#35495E"/>
<path d="M160.466 98.769H152.724V106.538H160.466V98.769Z" fill="#35495E"/>
<path d="M168.208 98.769H160.466V106.538H168.208V98.769Z" fill="#35495E"/>
<path d="M206.92 98.769H199.178V106.538H206.92V98.769Z" fill="#35495E"/>
<path d="M214.663 98.769H206.92V106.538H214.663V98.769Z" fill="#35495E"/>
<path d="M230.148 98.769H222.405V106.538H230.148V98.769Z" fill="#35495E"/>
<path d="M237.89 98.769H230.148V106.538H237.89V98.769Z" fill="#35495E"/>
<path d="M36.5881 106.538H28.8457V114.308H36.5881V106.538Z" fill="#35495E"/>
<path d="M44.3305 106.538H36.5881V114.308H44.3305V106.538Z" fill="#35495E"/>
<path d="M59.8152 106.538H52.0728V114.308H59.8152V106.538Z" fill="#35495E"/>
<path d="M75.3 106.538H67.5576V114.308H75.3V106.538Z" fill="#35495E"/>
<path d="M83.0423 106.538H75.3V114.308H83.0423V106.538Z" fill="#35495E"/>
<path d="M90.7847 106.538H83.0423V114.308H90.7847V106.538Z" fill="#35495E"/>
<path d="M106.269 106.538H98.5271V114.308H106.269V106.538Z" fill="#35495E"/>
<path d="M121.754 106.538H114.012V114.308H121.754V106.538Z" fill="#35495E"/>
<path d="M160.466 106.538H152.724V114.308H160.466V106.538Z" fill="#35495E"/>
<path d="M168.208 106.538H160.466V114.308H168.208V106.538Z" fill="#35495E"/>
<path d="M199.178 106.538H191.436V114.308H199.178V106.538Z" fill="#35495E"/>
<path d="M214.663 106.538H206.92V114.308H214.663V106.538Z" fill="#35495E"/>
<path d="M222.405 106.538H214.663V114.308H222.405V106.538Z" fill="#35495E"/>
<path d="M237.89 106.538H230.148V114.308H237.89V106.538Z" fill="#35495E"/>
<path d="M245.632 106.538H237.89V114.308H245.632V106.538Z" fill="#35495E"/>
<path d="M253.375 106.538H245.632V114.308H253.375V106.538Z" fill="#35495E"/>
<path d="M52.0728 114.308H44.3305V122.077H52.0728V114.308Z" fill="#35495E"/>
<path d="M59.8152 114.308H52.0728V122.077H59.8152V114.308Z" fill="#35495E"/>
<path d="M98.5271 114.308H90.7847V122.077H98.5271V114.308Z" fill="#35495E"/>
<path d="M106.269 114.308H98.5271V122.077H106.269V114.308Z" fill="#35495E"/>
<path d="M121.754 114.308H114.012V122.077H121.754V114.308Z" fill="#35495E"/>
<path d="M129.497 114.308H121.754V122.077H129.497V114.308Z" fill="#35495E"/>
<path d="M144.981 114.308H137.239V122.077H144.981V114.308Z" fill="#35495E"/>
<path d="M199.178 114.308H191.436V122.077H199.178V114.308Z" fill="#35495E"/>
<path d="M214.663 114.308H206.92V122.077H214.663V114.308Z" fill="#35495E"/>
<path d="M222.405 114.308H214.663V122.077H222.405V114.308Z" fill="#35495E"/>
<path d="M230.148 114.308H222.405V122.077H230.148V114.308Z" fill="#35495E"/>
<path d="M52.0728 122.077H44.3305V129.846H52.0728V122.077Z" fill="#35495E"/>
<path d="M59.8152 122.077H52.0728V129.846H59.8152V122.077Z" fill="#35495E"/>
<path d="M83.0423 122.077H75.3V129.846H83.0423V122.077Z" fill="#35495E"/>
<path d="M90.7847 122.077H83.0423V129.846H90.7847V122.077Z" fill="#35495E"/>
<path d="M106.269 122.077H98.5271V129.846H106.269V122.077Z" fill="#35495E"/>
<path d="M114.012 122.077H106.269V129.846H114.012V122.077Z" fill="#35495E"/>
<path d="M129.497 122.077H121.754V129.846H129.497V122.077Z" fill="#35495E"/>
<path d="M160.466 122.077H152.724V129.846H160.466V122.077Z" fill="#35495E"/>
<path d="M168.208 122.077H160.466V129.846H168.208V122.077Z" fill="#35495E"/>
<path d="M222.405 122.077H214.663V129.846H222.405V122.077Z" fill="#35495E"/>
<path d="M230.148 122.077H222.405V129.846H230.148V122.077Z" fill="#35495E"/>
<path d="M237.89 122.077H230.148V129.846H237.89V122.077Z" fill="#35495E"/>
<path d="M245.632 122.077H237.89V129.846H245.632V122.077Z" fill="#35495E"/>
<path d="M253.375 122.077H245.632V129.846H253.375V122.077Z" fill="#35495E"/>
<path d="M36.5881 129.846H28.8457V137.615H36.5881V129.846Z" fill="#35495E"/>
<path d="M44.3305 129.846H36.5881V137.615H44.3305V129.846Z" fill="#35495E"/>
<path d="M52.0728 129.846H44.3305V137.615H52.0728V129.846Z" fill="#35495E"/>
<path d="M67.5576 129.846H59.8152V137.615H67.5576V129.846Z" fill="#35495E"/>
<path d="M75.3 129.846H67.5576V137.615H75.3V129.846Z" fill="#35495E"/>
<path d="M98.5271 129.846H90.7847V137.615H98.5271V129.846Z" fill="#35495E"/>
<path d="M129.497 129.846H121.754V137.615H129.497V129.846Z" fill="#35495E"/>
<path d="M152.724 129.846H144.981V137.615H152.724V129.846Z" fill="#35495E"/>
<path d="M175.951 129.846H168.208V137.615H175.951V129.846Z" fill="#35495E"/>
<path d="M183.693 129.846H175.951V137.615H183.693V129.846Z" fill="#35495E"/>
<path d="M191.436 129.846H183.693V137.615H191.436V129.846Z" fill="#35495E"/>
<path d="M199.178 129.846H191.436V137.615H199.178V129.846Z" fill="#35495E"/>
<path d="M206.92 129.846H199.178V137.615H206.92V129.846Z" fill="#35495E"/>
<path d="M214.663 129.846H206.92V137.615H214.663V129.846Z" fill="#35495E"/>
<path d="M222.405 129.846H214.663V137.615H222.405V129.846Z" fill="#35495E"/>
<path d="M230.148 129.846H222.405V137.615H230.148V129.846Z" fill="#35495E"/>
<path d="M245.632 129.846H237.89V137.615H245.632V129.846Z" fill="#35495E"/>
<path d="M36.5881 137.615H28.8457V145.385H36.5881V137.615Z" fill="#35495E"/>
<path d="M44.3305 137.615H36.5881V145.385H44.3305V137.615Z" fill="#35495E"/>
<path d="M52.0728 137.615H44.3305V145.385H52.0728V137.615Z" fill="#35495E"/>
<path d="M59.8152 137.615H52.0728V145.385H59.8152V137.615Z" fill="#35495E"/>
<path d="M75.3 137.615H67.5576V145.385H75.3V137.615Z" fill="#35495E"/>
<path d="M83.0423 137.615H75.3V145.385H83.0423V137.615Z" fill="#35495E"/>
<path d="M90.7847 137.615H83.0423V145.385H90.7847V137.615Z" fill="#35495E"/>
<path d="M98.5271 137.615H90.7847V145.385H98.5271V137.615Z" fill="#35495E"/>
<path d="M106.269 137.615H98.5271V145.385H106.269V137.615Z" fill="#35495E"/>
<path d="M114.012 137.615H106.269V145.385H114.012V137.615Z" fill="#35495E"/>
<path d="M121.754 137.615H114.012V145.385H121.754V137.615Z" fill="#35495E"/>
<path d="M129.497 137.615H121.754V145.385H129.497V137.615Z" fill="#35495E"/>
<path d="M144.981 137.615H137.239V145.385H144.981V137.615Z" fill="#35495E"/>
<path d="M152.724 137.615H144.981V145.385H152.724V137.615Z" fill="#35495E"/>
<path d="M175.951 137.615H168.208V145.385H175.951V137.615Z" fill="#35495E"/>
<path d="M230.148 137.615H222.405V145.385H230.148V137.615Z" fill="#35495E"/>
<path d="M237.89 137.615H230.148V145.385H237.89V137.615Z" fill="#35495E"/>
<path d="M245.632 137.615H237.89V145.385H245.632V137.615Z" fill="#35495E"/>
<path d="M253.375 137.615H245.632V145.385H253.375V137.615Z" fill="#35495E"/>
<path d="M36.5881 145.385H28.8457V153.154H36.5881V145.385Z" fill="#35495E"/>
<path d="M44.3305 145.385H36.5881V153.154H44.3305V145.385Z" fill="#35495E"/>
<path d="M59.8152 145.385H52.0728V153.154H59.8152V145.385Z" fill="#35495E"/>
<path d="M67.5576 145.385H59.8152V153.154H67.5576V145.385Z" fill="#35495E"/>
<path d="M98.5271 145.385H90.7847V153.154H98.5271V145.385Z" fill="#35495E"/>
<path d="M121.754 145.385H114.012V153.154H121.754V145.385Z" fill="#35495E"/>
<path d="M144.981 145.385H137.239V153.154H144.981V145.385Z" fill="#35495E"/>
<path d="M160.466 145.385H152.724V153.154H160.466V145.385Z" fill="#35495E"/>
<path d="M183.693 145.385H175.951V153.154H183.693V145.385Z" fill="#35495E"/>
<path d="M206.92 145.385H199.178V153.154H206.92V145.385Z" fill="#35495E"/>
<path d="M222.405 145.385H214.663V153.154H222.405V145.385Z" fill="#35495E"/>
<path d="M245.632 145.385H237.89V153.154H245.632V145.385Z" fill="#35495E"/>
<path d="M83.0423 153.154H75.3V160.923H83.0423V153.154Z" fill="#35495E"/>
<path d="M98.5271 153.154H90.7847V160.923H98.5271V153.154Z" fill="#35495E"/>
<path d="M152.724 153.154H144.981V160.923H152.724V153.154Z" fill="#35495E"/>
<path d="M175.951 153.154H168.208V160.923H175.951V153.154Z" fill="#35495E"/>
<path d="M183.693 153.154H175.951V160.923H183.693V153.154Z" fill="#35495E"/>
<path d="M199.178 153.154H191.436V160.923H199.178V153.154Z" fill="#35495E"/>
<path d="M206.92 153.154H199.178V160.923H206.92V153.154Z" fill="#35495E"/>
<path d="M214.663 153.154H206.92V160.923H214.663V153.154Z" fill="#35495E"/>
<path d="M222.405 153.154H214.663V160.923H222.405V153.154Z" fill="#35495E"/>
<path d="M230.148 153.154H222.405V160.923H230.148V153.154Z" fill="#35495E"/>
<path d="M237.89 153.154H230.148V160.923H237.89V153.154Z" fill="#35495E"/>
<path d="M253.375 153.154H245.632V160.923H253.375V153.154Z" fill="#35495E"/>
<path d="M44.3305 160.923H36.5881V168.692H44.3305V160.923Z" fill="#35495E"/>
<path d="M59.8152 160.923H52.0728V168.692H59.8152V160.923Z" fill="#35495E"/>
<path d="M75.3 160.923H67.5576V168.692H75.3V160.923Z" fill="#35495E"/>
<path d="M98.5271 160.923H90.7847V168.692H98.5271V160.923Z" fill="#35495E"/>
<path d="M106.269 160.923H98.5271V168.692H106.269V160.923Z" fill="#35495E"/>
<path d="M121.754 160.923H114.012V168.692H121.754V160.923Z" fill="#35495E"/>
<path d="M129.497 160.923H121.754V168.692H129.497V160.923Z" fill="#35495E"/>
<path d="M137.239 160.923H129.497V168.692H137.239V160.923Z" fill="#35495E"/>
<path d="M144.981 160.923H137.239V168.692H144.981V160.923Z" fill="#35495E"/>
<path d="M152.724 160.923H144.981V168.692H152.724V160.923Z" fill="#35495E"/>
<path d="M160.466 160.923H152.724V168.692H160.466V160.923Z" fill="#35495E"/>
<path d="M168.208 160.923H160.466V168.692H168.208V160.923Z" fill="#35495E"/>
<path d="M175.951 160.923H168.208V168.692H175.951V160.923Z" fill="#35495E"/>
<path d="M199.178 160.923H191.436V168.692H199.178V160.923Z" fill="#35495E"/>
<path d="M222.405 160.923H214.663V168.692H222.405V160.923Z" fill="#35495E"/>
<path d="M253.375 160.923H245.632V168.692H253.375V160.923Z" fill="#35495E"/>
<path d="M36.5881 168.692H28.8457V176.462H36.5881V168.692Z" fill="#35495E"/>
<path d="M67.5576 168.692H59.8152V176.462H67.5576V168.692Z" fill="#35495E"/>
<path d="M83.0423 168.692H75.3V176.462H83.0423V168.692Z" fill="#35495E"/>
<path d="M98.5271 168.692H90.7847V176.462H98.5271V168.692Z" fill="#35495E"/>
<path d="M106.269 168.692H98.5271V176.462H106.269V168.692Z" fill="#35495E"/>
<path d="M129.497 168.692H121.754V176.462H129.497V168.692Z" fill="#35495E"/>
<path d="M137.239 168.692H129.497V176.462H137.239V168.692Z" fill="#35495E"/>
<path d="M152.724 168.692H144.981V176.462H152.724V168.692Z" fill="#35495E"/>
<path d="M168.208 168.692H160.466V176.462H168.208V168.692Z" fill="#35495E"/>
<path d="M175.951 168.692H168.208V176.462H175.951V168.692Z" fill="#35495E"/>
<path d="M191.436 168.692H183.693V176.462H191.436V168.692Z" fill="#35495E"/>
<path d="M214.663 168.692H206.92V176.462H214.663V168.692Z" fill="#35495E"/>
<path d="M230.148 168.692H222.405V176.462H230.148V168.692Z" fill="#35495E"/>
<path d="M237.89 168.692H230.148V176.462H237.89V168.692Z" fill="#35495E"/>
<path d="M253.375 168.692H245.632V176.462H253.375V168.692Z" fill="#35495E"/>
<path d="M44.3305 176.462H36.5881V184.231H44.3305V176.462Z" fill="#35495E"/>
<path d="M67.5576 176.462H59.8152V184.231H67.5576V176.462Z" fill="#35495E"/>
<path d="M106.269 176.462H98.5271V184.231H106.269V176.462Z" fill="#35495E"/>
<path d="M144.981 176.462H137.239V184.231H144.981V176.462Z" fill="#35495E"/>
<path d="M168.208 176.462H160.466V184.231H168.208V176.462Z" fill="#35495E"/>
<path d="M175.951 176.462H168.208V184.231H175.951V176.462Z" fill="#35495E"/>
<path d="M191.436 176.462H183.693V184.231H191.436V176.462Z" fill="#35495E"/>
<path d="M206.92 176.462H199.178V184.231H206.92V176.462Z" fill="#35495E"/>
<path d="M214.663 176.462H206.92V184.231H214.663V176.462Z" fill="#35495E"/>
<path d="M222.405 176.462H214.663V184.231H222.405V176.462Z" fill="#35495E"/>
<path d="M230.148 176.462H222.405V184.231H230.148V176.462Z" fill="#35495E"/>
<path d="M253.375 176.462H245.632V184.231H253.375V176.462Z" fill="#35495E"/>
<path d="M59.8152 184.231H52.0728V192H59.8152V184.231Z" fill="#35495E"/>
<path d="M83.0423 184.231H75.3V192H83.0423V184.231Z" fill="#35495E"/>
<path d="M106.269 184.231H98.5271V192H106.269V184.231Z" fill="#35495E"/>
<path d="M114.012 184.231H106.269V192H114.012V184.231Z" fill="#35495E"/>
<path d="M121.754 184.231H114.012V192H121.754V184.231Z" fill="#35495E"/>
<path d="M129.497 184.231H121.754V192H129.497V184.231Z" fill="#35495E"/>
<path d="M144.981 184.231H137.239V192H144.981V184.231Z" fill="#35495E"/>
<path d="M160.466 184.231H152.724V192H160.466V184.231Z" fill="#35495E"/>
<path d="M168.208 184.231H160.466V192H168.208V184.231Z" fill="#35495E"/>
<path d="M191.436 184.231H183.693V192H191.436V184.231Z" fill="#35495E"/>
<path d="M199.178 184.231H191.436V192H199.178V184.231Z" fill="#35495E"/>
<path d="M206.92 184.231H199.178V192H206.92V184.231Z" fill="#35495E"/>
<path d="M214.663 184.231H206.92V192H214.663V184.231Z" fill="#35495E"/>
<path d="M222.405 184.231H214.663V192H222.405V184.231Z" fill="#35495E"/>
<path d="M237.89 184.231H230.148V192H237.89V184.231Z" fill="#35495E"/>
<path d="M253.375 184.231H245.632V192H253.375V184.231Z" fill="#35495E"/>
<path d="M98.5271 192H90.7847V199.769H98.5271V192Z" fill="#35495E"/>
<path d="M106.269 192H98.5271V199.769H106.269V192Z" fill="#35495E"/>
<path d="M114.012 192H106.269V199.769H114.012V192Z" fill="#35495E"/>
<path d="M144.981 192H137.239V199.769H144.981V192Z" fill="#35495E"/>
<path d="M152.724 192H144.981V199.769H152.724V192Z" fill="#35495E"/>
<path d="M168.208 192H160.466V199.769H168.208V192Z" fill="#35495E"/>
<path d="M175.951 192H168.208V199.769H175.951V192Z" fill="#35495E"/>
<path d="M183.693 192H175.951V199.769H183.693V192Z" fill="#35495E"/>
<path d="M191.436 192H183.693V199.769H191.436V192Z" fill="#35495E"/>
<path d="M222.405 192H214.663V199.769H222.405V192Z" fill="#35495E"/>
<path d="M230.148 192H222.405V199.769H230.148V192Z" fill="#35495E"/>
<path d="M237.89 192H230.148V199.769H237.89V192Z" fill="#35495E"/>
<path d="M36.5881 199.769H28.8457V207.539H36.5881V199.769Z" fill="#35495E"/>
<path d="M44.3305 199.769H36.5881V207.539H44.3305V199.769Z" fill="#35495E"/>
<path d="M52.0728 199.769H44.3305V207.539H52.0728V199.769Z" fill="#35495E"/>
<path d="M59.8152 199.769H52.0728V207.539H59.8152V199.769Z" fill="#35495E"/>
<path d="M67.5576 199.769H59.8152V207.539H67.5576V199.769Z" fill="#35495E"/>
<path d="M75.3 199.769H67.5576V207.539H75.3V199.769Z" fill="#35495E"/>
<path d="M83.0423 199.769H75.3V207.539H83.0423V199.769Z" fill="#35495E"/>
<path d="M121.754 199.769H114.012V207.539H121.754V199.769Z" fill="#35495E"/>
<path d="M129.497 199.769H121.754V207.539H129.497V199.769Z" fill="#35495E"/>
<path d="M137.239 199.769H129.497V207.539H137.239V199.769Z" fill="#35495E"/>
<path d="M144.981 199.769H137.239V207.539H144.981V199.769Z" fill="#35495E"/>
<path d="M152.724 199.769H144.981V207.539H152.724V199.769Z" fill="#35495E"/>
<path d="M191.436 199.769H183.693V207.539H191.436V199.769Z" fill="#35495E"/>
<path d="M206.92 199.769H199.178V207.539H206.92V199.769Z" fill="#35495E"/>
<path d="M222.405 199.769H214.663V207.539H222.405V199.769Z" fill="#35495E"/>
<path d="M245.632 199.769H237.89V207.539H245.632V199.769Z" fill="#35495E"/>
<path d="M36.5881 207.539H28.8457V215.308H36.5881V207.539Z" fill="#35495E"/>
<path d="M83.0423 207.539H75.3V215.308H83.0423V207.539Z" fill="#35495E"/>
<path d="M106.269 207.539H98.5271V215.308H106.269V207.539Z" fill="#35495E"/>
<path d="M114.012 207.539H106.269V215.308H114.012V207.539Z" fill="#35495E"/>
<path d="M129.497 207.539H121.754V215.308H129.497V207.539Z" fill="#35495E"/>
<path d="M144.981 207.539H137.239V215.308H144.981V207.539Z" fill="#35495E"/>
<path d="M152.724 207.539H144.981V215.308H152.724V207.539Z" fill="#35495E"/>
<path d="M183.693 207.539H175.951V215.308H183.693V207.539Z" fill="#35495E"/>
<path d="M191.436 207.539H183.693V215.308H191.436V207.539Z" fill="#35495E"/>
<path d="M222.405 207.539H214.663V215.308H222.405V207.539Z" fill="#35495E"/>
<path d="M230.148 207.539H222.405V215.308H230.148V207.539Z" fill="#35495E"/>
<path d="M237.89 207.539H230.148V215.308H237.89V207.539Z" fill="#35495E"/>
<path d="M245.632 207.539H237.89V215.308H245.632V207.539Z" fill="#35495E"/>
<path d="M36.5881 215.308H28.8457V223.077H36.5881V215.308Z" fill="#35495E"/>
<path d="M52.0728 215.308H44.3305V223.077H52.0728V215.308Z" fill="#35495E"/>
<path d="M59.8152 215.308H52.0728V223.077H59.8152V215.308Z" fill="#35495E"/>
<path d="M67.5576 215.308H59.8152V223.077H67.5576V215.308Z" fill="#35495E"/>
<path d="M83.0423 215.308H75.3V223.077H83.0423V215.308Z" fill="#35495E"/>
<path d="M98.5271 215.308H90.7847V223.077H98.5271V215.308Z" fill="#35495E"/>
<path d="M106.269 215.308H98.5271V223.077H106.269V215.308Z" fill="#35495E"/>
<path d="M137.239 215.308H129.497V223.077H137.239V215.308Z" fill="#35495E"/>
<path d="M152.724 215.308H144.981V223.077H152.724V215.308Z" fill="#35495E"/>
<path d="M168.208 215.308H160.466V223.077H168.208V215.308Z" fill="#35495E"/>
<path d="M183.693 215.308H175.951V223.077H183.693V215.308Z" fill="#35495E"/>
<path d="M191.436 215.308H183.693V223.077H191.436V215.308Z" fill="#35495E"/>
<path d="M199.178 215.308H191.436V223.077H199.178V215.308Z" fill="#35495E"/>
<path d="M206.92 215.308H199.178V223.077H206.92V215.308Z" fill="#35495E"/>
<path d="M214.663 215.308H206.92V223.077H214.663V215.308Z" fill="#35495E"/>
<path d="M222.405 215.308H214.663V223.077H222.405V215.308Z" fill="#35495E"/>
<path d="M237.89 215.308H230.148V223.077H237.89V215.308Z" fill="#35495E"/>
<path d="M253.375 215.308H245.632V223.077H253.375V215.308Z" fill="#35495E"/>
<path d="M36.5881 223.077H28.8457V230.846H36.5881V223.077Z" fill="#35495E"/>
<path d="M52.0728 223.077H44.3305V230.846H52.0728V223.077Z" fill="#35495E"/>
<path d="M59.8152 223.077H52.0728V230.846H59.8152V223.077Z" fill="#35495E"/>
<path d="M67.5576 223.077H59.8152V230.846H67.5576V223.077Z" fill="#35495E"/>
<path d="M83.0423 223.077H75.3V230.846H83.0423V223.077Z" fill="#35495E"/>
<path d="M121.754 223.077H114.012V230.846H121.754V223.077Z" fill="#35495E"/>
<path d="M137.239 223.077H129.497V230.846H137.239V223.077Z" fill="#35495E"/>
<path d="M160.466 223.077H152.724V230.846H160.466V223.077Z" fill="#35495E"/>
<path d="M175.951 223.077H168.208V230.846H175.951V223.077Z" fill="#35495E"/>
<path d="M183.693 223.077H175.951V230.846H183.693V223.077Z" fill="#35495E"/>
<path d="M191.436 223.077H183.693V230.846H191.436V223.077Z" fill="#35495E"/>
<path d="M199.178 223.077H191.436V230.846H199.178V223.077Z" fill="#35495E"/>
<path d="M206.92 223.077H199.178V230.846H206.92V223.077Z" fill="#35495E"/>
<path d="M222.405 223.077H214.663V230.846H222.405V223.077Z" fill="#35495E"/>
<path d="M245.632 223.077H237.89V230.846H245.632V223.077Z" fill="#35495E"/>
<path d="M253.375 223.077H245.632V230.846H253.375V223.077Z" fill="#35495E"/>
<path d="M36.5881 230.846H28.8457V238.616H36.5881V230.846Z" fill="#35495E"/>
<path d="M52.0728 230.846H44.3305V238.616H52.0728V230.846Z" fill="#35495E"/>
<path d="M59.8152 230.846H52.0728V238.616H59.8152V230.846Z" fill="#35495E"/>
<path d="M67.5576 230.846H59.8152V238.616H67.5576V230.846Z" fill="#35495E"/>
<path d="M83.0423 230.846H75.3V238.616H83.0423V230.846Z" fill="#35495E"/>
<path d="M98.5271 230.846H90.7847V238.616H98.5271V230.846Z" fill="#35495E"/>
<path d="M106.269 230.846H98.5271V238.616H106.269V230.846Z" fill="#35495E"/>
<path d="M114.012 230.846H106.269V238.616H114.012V230.846Z" fill="#35495E"/>
<path d="M137.239 230.846H129.497V238.616H137.239V230.846Z" fill="#35495E"/>
<path d="M144.981 230.846H137.239V238.616H144.981V230.846Z" fill="#35495E"/>
<path d="M152.724 230.846H144.981V238.616H152.724V230.846Z" fill="#35495E"/>
<path d="M168.208 230.846H160.466V238.616H168.208V230.846Z" fill="#35495E"/>
<path d="M183.693 230.846H175.951V238.616H183.693V230.846Z" fill="#35495E"/>
<path d="M191.436 230.846H183.693V238.616H191.436V230.846Z" fill="#35495E"/>
<path d="M237.89 230.846H230.148V238.616H237.89V230.846Z" fill="#35495E"/>
<path d="M245.632 230.846H237.89V238.616H245.632V230.846Z" fill="#35495E"/>
<path d="M36.5881 238.616H28.8457V246.385H36.5881V238.616Z" fill="#35495E"/>
<path d="M83.0423 238.616H75.3V246.385H83.0423V238.616Z" fill="#35495E"/>
<path d="M98.5271 238.616H90.7847V246.385H98.5271V238.616Z" fill="#35495E"/>
<path d="M106.269 238.616H98.5271V246.385H106.269V238.616Z" fill="#35495E"/>
<path d="M137.239 238.616H129.497V246.385H137.239V238.616Z" fill="#35495E"/>
<path d="M168.208 238.616H160.466V246.385H168.208V238.616Z" fill="#35495E"/>
<path d="M191.436 238.616H183.693V246.385H191.436V238.616Z" fill="#35495E"/>
<path d="M214.663 238.616H206.92V246.385H214.663V238.616Z" fill="#35495E"/>
<path d="M222.405 238.616H214.663V246.385H222.405V238.616Z" fill="#35495E"/>
<path d="M230.148 238.616H222.405V246.385H230.148V238.616Z" fill="#35495E"/>
<path d="M237.89 238.616H230.148V246.385H237.89V238.616Z" fill="#35495E"/>
<path d="M36.5881 246.385H28.8457V254.154H36.5881V246.385Z" fill="#35495E"/>
<path d="M44.3305 246.385H36.5881V254.154H44.3305V246.385Z" fill="#35495E"/>
<path d="M52.0728 246.385H44.3305V254.154H52.0728V246.385Z" fill="#35495E"/>
<path d="M59.8152 246.385H52.0728V254.154H59.8152V246.385Z" fill="#35495E"/>
<path d="M67.5576 246.385H59.8152V254.154H67.5576V246.385Z" fill="#35495E"/>
<path d="M75.3 246.385H67.5576V254.154H75.3V246.385Z" fill="#35495E"/>
<path d="M83.0423 246.385H75.3V254.154H83.0423V246.385Z" fill="#35495E"/>
<path d="M98.5271 246.385H90.7847V254.154H98.5271V246.385Z" fill="#35495E"/>
<path d="M121.754 246.385H114.012V254.154H121.754V246.385Z" fill="#35495E"/>
<path d="M129.497 246.385H121.754V254.154H129.497V246.385Z" fill="#35495E"/>
<path d="M137.239 246.385H129.497V254.154H137.239V246.385Z" fill="#35495E"/>
<path d="M144.981 246.385H137.239V254.154H144.981V246.385Z" fill="#35495E"/>
<path d="M152.724 246.385H144.981V254.154H152.724V246.385Z" fill="#35495E"/>
<path d="M175.951 246.385H168.208V254.154H175.951V246.385Z" fill="#35495E"/>
<path d="M214.663 246.385H206.92V254.154H214.663V246.385Z" fill="#35495E"/>
<path d="M237.89 246.385H230.148V254.154H237.89V246.385Z" fill="#35495E"/>
<path d="M245.632 246.385H237.89V254.154H245.632V246.385Z" fill="#35495E"/>
<g opacity="0.2">
<path d="M283 283H236.223V275.204H283V283Z" fill="#35495E"/>
<path d="M275.204 283V236.223H283V283H275.204Z" fill="#35495E"/>
<path d="M0 283L5.57808e-07 236.223H7.79614L7.79614 283H0Z" fill="#35495E"/>
<path d="M9.29681e-08 275.204H46.7769V283H0L9.29681e-08 275.204Z" fill="#35495E"/>
<path d="M283 4.08936e-06V46.7769H275.204V3.74858e-06L283 4.08936e-06Z" fill="#35495E"/>
<path d="M283 7.79615L236.223 7.79614V0L283 4.08936e-06V7.79615Z" fill="#35495E"/>
<path d="M2.04468e-06 0H46.7769V7.79614H2.04468e-06V0Z" fill="#35495E"/>
<path d="M7.79615 0L7.79614 46.7769H0L2.04468e-06 0H7.79615Z" fill="#35495E"/>
</g>
<rect x="15.5923" y="137.212" width="251.815" height="124.738" fill="white" fill-opacity="0.8"/>
<rect x="15.5923" y="137.212" width="251.815" height="12.4738" fill="#D9D9D9"/>
</svg>
