<svg width="363" height="363" viewBox="0 0 363 363" fill="none" xmlns="http://www.w3.org/2000/svg">
<g opacity="0.5">
<g clip-path="url(#clip0_434_3604)">
<path d="M0 11.334C0 8.32802 1.19411 5.44518 3.31965 3.31965C5.44518 1.19411 8.32802 0 11.334 0L79.3379 0C82.3438 0 85.2267 1.19411 87.3522 3.31965C89.4778 5.44518 90.6719 8.32802 90.6719 11.334C90.6719 14.3399 89.4778 17.2228 87.3522 19.3483C85.2267 21.4739 82.3438 22.668 79.3379 22.668H43.668C32.07 22.668 22.668 32.07 22.668 43.668V79.3379C22.668 82.3438 21.4739 85.2267 19.3483 87.3522C17.2228 89.4778 14.3399 90.6719 11.334 90.6719C8.32802 90.6719 5.44518 89.4778 3.31965 87.3522C1.19411 85.2267 0 82.3438 0 79.3379V11.334ZM272.016 11.334C272.016 8.32802 273.21 5.44518 275.335 3.31965C277.461 1.19411 280.344 0 283.35 0L351.354 0C354.359 0 357.242 1.19411 359.368 3.31965C361.493 5.44518 362.687 8.32802 362.687 11.334V79.3379C362.687 82.3438 361.493 85.2267 359.368 87.3522C357.242 89.4778 354.359 90.6719 351.354 90.6719C348.348 90.6719 345.465 89.4778 343.339 87.3522C341.214 85.2267 340.02 82.3438 340.02 79.3379V43.668C340.02 32.07 330.618 22.668 319.02 22.668H283.35C280.344 22.668 277.461 21.4739 275.335 19.3483C273.21 17.2228 272.016 14.3399 272.016 11.334ZM11.334 272.016C14.3399 272.016 17.2228 273.21 19.3483 275.335C21.4739 277.461 22.668 280.344 22.668 283.35V319.02C22.668 330.618 32.07 340.02 43.668 340.02H79.3379C82.3438 340.02 85.2267 341.214 87.3522 343.339C89.4778 345.465 90.6719 348.348 90.6719 351.354C90.6719 354.359 89.4778 357.242 87.3522 359.368C85.2267 361.493 82.3438 362.687 79.3379 362.687H11.334C8.32802 362.687 5.44518 361.493 3.31965 359.368C1.19411 357.242 0 354.359 0 351.354V283.35C0 280.344 1.19411 277.461 3.31965 275.335C5.44518 273.21 8.32802 272.016 11.334 272.016ZM351.354 272.016C354.359 272.016 357.242 273.21 359.368 275.335C361.493 277.461 362.687 280.344 362.687 283.35V351.354C362.687 354.359 361.493 357.242 359.368 359.368C357.242 361.493 354.359 362.687 351.354 362.687H283.35C280.344 362.687 277.461 361.493 275.335 359.368C273.21 357.242 272.016 354.359 272.016 351.354C272.016 348.348 273.21 345.465 275.335 343.339C277.461 341.214 280.344 340.02 283.35 340.02H319.02C330.618 340.02 340.02 330.618 340.02 319.02V283.35C340.02 280.344 341.214 277.461 343.339 275.335C345.465 273.21 348.348 272.016 351.354 272.016Z" fill="#35495E"/>
</g>
</g>
<defs>
<clipPath id="clip0_434_3604">
<rect width="362.688" height="362.688" fill="white"/>
</clipPath>
</defs>
</svg>
