<svg width="250" height="250" viewBox="0 0 250 250" fill="none" xmlns="http://www.w3.org/2000/svg">
<rect width="250" height="250" rx="34" fill="#333333"/>
<g clip-path="url(#clip0_68_1667)">
<path d="M27.3438 33.4473C27.3438 31.8285 27.9868 30.2761 29.1314 29.1314C30.2761 27.9868 31.8285 27.3438 33.4473 27.3438H70.0684C71.6871 27.3438 73.2396 27.9868 74.3842 29.1314C75.5288 30.2761 76.1719 31.8285 76.1719 33.4473C76.1719 35.066 75.5288 36.6185 74.3842 37.7631C73.2396 38.9077 71.6871 39.5508 70.0684 39.5508H60.5508C48.9528 39.5508 39.5508 48.9528 39.5508 60.5508V70.0684C39.5508 71.6871 38.9077 73.2396 37.7631 74.3842C36.6185 75.5288 35.066 76.1719 33.4473 76.1719C31.8285 76.1719 30.2761 75.5288 29.1314 74.3842C27.9868 73.2396 27.3438 71.6871 27.3438 70.0684V33.4473ZM173.828 33.4473C173.828 31.8285 174.471 30.2761 175.616 29.1314C176.76 27.9868 178.313 27.3438 179.932 27.3438H216.553C218.171 27.3438 219.724 27.9868 220.869 29.1314C222.013 30.2761 222.656 31.8285 222.656 33.4473V70.0684C222.656 71.6871 222.013 73.2396 220.869 74.3842C219.724 75.5288 218.171 76.1719 216.553 76.1719C214.934 76.1719 213.382 75.5288 212.237 74.3842C211.092 73.2396 210.449 71.6871 210.449 70.0684V60.5508C210.449 48.9528 201.047 39.5508 189.449 39.5508H179.932C178.313 39.5508 176.76 38.9077 175.616 37.7631C174.471 36.6185 173.828 35.066 173.828 33.4473ZM33.4473 173.828C35.066 173.828 36.6185 174.471 37.7631 175.616C38.9077 176.76 39.5508 178.313 39.5508 179.932V189.449C39.5508 201.047 48.9528 210.449 60.5508 210.449H70.0684C71.6871 210.449 73.2396 211.092 74.3842 212.237C75.5288 213.382 76.1719 214.934 76.1719 216.553C76.1719 218.171 75.5288 219.724 74.3842 220.869C73.2396 222.013 71.6871 222.656 70.0684 222.656H33.4473C31.8285 222.656 30.2761 222.013 29.1314 220.869C27.9868 219.724 27.3438 218.171 27.3438 216.553V179.932C27.3438 178.313 27.9868 176.76 29.1314 175.616C30.2761 174.471 31.8285 173.828 33.4473 173.828ZM216.553 173.828C218.171 173.828 219.724 174.471 220.869 175.616C222.013 176.76 222.656 178.313 222.656 179.932V216.553C222.656 218.171 222.013 219.724 220.869 220.869C219.724 222.013 218.171 222.656 216.553 222.656H179.932C178.313 222.656 176.76 222.013 175.616 220.869C174.471 219.724 173.828 218.171 173.828 216.553C173.828 214.934 174.471 213.382 175.616 212.237C176.76 211.092 178.313 210.449 179.932 210.449H189.449C201.047 210.449 210.449 201.047 210.449 189.449V179.932C210.449 178.313 211.092 176.76 212.237 175.616C213.382 174.471 214.934 173.828 216.553 173.828ZM76.1719 82.2754C76.1719 78.9045 78.9045 76.1719 82.2754 76.1719C85.6463 76.1719 88.3789 78.9045 88.3789 82.2754C88.3789 85.6463 85.6463 88.3789 82.2754 88.3789C78.9045 88.3789 76.1719 85.6463 76.1719 82.2754Z" fill="white"/>
<path d="M112.793 51.7578H51.7578V112.793H112.793V51.7578ZM63.9648 63.9648H100.586V100.586H63.9648V63.9648ZM88.3789 161.621H76.1719V173.828H88.3789V161.621Z" fill="white"/>
<path d="M112.793 137.207H51.7578V198.242H112.793V137.207ZM63.9648 149.414H100.586V186.035H63.9648V149.414ZM161.621 76.1719H173.828V88.3789H161.621V76.1719Z" fill="white"/>
<path d="M137.207 51.7578H198.242V112.793H137.207V51.7578ZM149.414 63.9648V100.586H186.035V63.9648H149.414ZM125 125V149.414H137.207V161.621H125V173.828H149.414V149.414H161.621V173.828H173.828V161.621H198.242V149.414H161.621V125H125ZM149.414 149.414H137.207V137.207H149.414V149.414ZM198.242 173.828H186.035V186.035H161.621V198.242H198.242V173.828ZM149.414 198.242V186.035H125V198.242H149.414Z" fill="white"/>
<path d="M173.828 137.207H198.242V125H173.828V137.207Z" fill="white"/>
<circle cx="82.1397" cy="82.1399" r="7.05295" fill="white"/>
<path d="M31.1415 125L220.486 123.373" stroke="white" stroke-width="7" stroke-linecap="round" stroke-linejoin="round"/>
</g>
<defs>
<clipPath id="clip0_68_1667">
<rect width="195.312" height="195.312" fill="white" transform="translate(27.3438 27.3438)"/>
</clipPath>
</defs>
</svg>
