<svg width="156" height="155" viewBox="0 0 156 155" fill="none" xmlns="http://www.w3.org/2000/svg">
<path d="M155.5 77.5C155.5 98.0543 147.335 117.767 132.801 132.301C118.267 146.835 98.5543 155 78 155C57.4457 155 37.7333 146.835 23.1992 132.301C8.66516 117.767 0.5 98.0543 0.5 77.5C0.5 56.9457 8.66516 37.2333 23.1992 22.6992C37.7333 8.16516 57.4457 0 78 0C98.5543 0 118.267 8.16516 132.801 22.6992C147.335 37.2333 155.5 56.9457 155.5 77.5ZM117.041 48.1469C116.349 47.4573 115.525 46.9144 114.618 46.5505C113.711 46.1867 112.741 46.0094 111.764 46.0293C110.787 46.0492 109.825 46.2659 108.934 46.6663C108.043 47.0668 107.241 47.6428 106.578 48.36L72.9334 91.2272L52.6575 70.9416C51.2802 69.6582 49.4585 68.9595 47.5762 68.9927C45.6939 69.0259 43.898 69.7884 42.5668 71.1196C41.2356 72.4508 40.4731 74.2467 40.4399 76.129C40.4067 78.0113 41.1054 79.833 42.3887 81.2103L68.0219 106.853C68.7124 107.542 69.5347 108.086 70.4397 108.45C71.3447 108.815 72.3139 108.993 73.2894 108.975C74.2649 108.957 75.2268 108.743 76.1177 108.345C77.0086 107.947 77.8102 107.374 78.4747 106.659L117.147 58.3187C118.466 56.948 119.194 55.1149 119.176 53.213C119.158 51.3112 118.395 49.4923 117.05 48.1469H117.041Z" fill="#6EB644"/>
</svg>
