<svg width="76" height="76" viewBox="0 0 76 76" fill="none" xmlns="http://www.w3.org/2000/svg">
<path d="M35 24.4062L48.125 1.90625C53.8125 3.40625 58.86 6.15625 63.2675 10.1562C67.675 14.1562 70.8775 18.9062 72.875 24.4062H35ZM24.5938 33.7812L11.75 11.2812C15.125 7.96875 19.0475 5.34375 23.5175 3.40625C27.9875 1.46875 32.815 0.5 38 0.5C38.8125 0.5 39.75 0.5475 40.8125 0.6425C41.875 0.7375 42.8438 0.84625 43.7188 0.96875L24.5938 33.7812ZM1.71876 47.375C1.34376 45.875 1.04626 44.3438 0.826261 42.7812C0.606261 41.2188 0.497512 39.625 0.500012 38C0.500012 33.5625 1.21876 29.375 2.65626 25.4375C4.09376 21.5 6.12501 17.9062 8.75001 14.6562L27.6875 47.375H1.71876ZM27.9688 74.0938C22.2813 72.5938 17.2188 69.8438 12.7813 65.8438C8.34376 61.8437 5.12501 57.0938 3.12501 51.5938H40.9063L27.9688 74.0938ZM38 75.5C37.0625 75.5 36.1088 75.4375 35.1388 75.3125C34.1688 75.1875 33.2475 75.0625 32.375 74.9375L51.4063 42.2188L64.25 64.7188C60.875 68.0312 56.9525 70.6562 52.4825 72.5938C48.0125 74.5312 43.185 75.5 38 75.5ZM67.25 61.3438L48.3125 28.625H74.2813C74.6563 30.125 74.9538 31.6563 75.1738 33.2188C75.3938 34.7812 75.5025 36.375 75.5 38C75.5 42.375 74.7338 46.5625 73.2013 50.5625C71.6688 54.5625 69.685 58.1562 67.25 61.3438Z" fill="#333333"/>
</svg>
